<?xml version="1.0" encoding="utf-8"?><svg version="1.1" id="Layer_1" xmlns="http://www.w3.org/2000/svg" xmlns:xlink="http://www.w3.org/1999/xlink" x="0px" y="0px" viewBox="0 0 113.01 122.88" style="enable-background:new 0 0 113.01 122.88" xml:space="preserve"><g><path d="M44.13,102.06c-1.14,0.03-2.14-0.81-2.3-1.96c-0.17-1.2,0.64-2.31,1.82-2.54c-1.3-7.37-4.85-11.43-8.6-15.72 c-2.92-3.34-5.95-6.81-8.34-11.92c-2.35-5.03-3.64-10.23-3.6-15.63c0.05-5.4,1.42-10.96,4.4-16.71c0.02-0.04,0.04-0.07,0.06-0.11 l0,0c3.91-6.62,9.38-11.04,15.47-13.52c5.11-2.09,10.66-2.8,16.1-2.3c5.42,0.5,10.73,2.2,15.37,4.94 c5.9,3.49,10.75,8.67,13.42,15.21c1.44,3.54,2.42,7.49,2.54,11.82c0.12,4.31-0.62,8.96-2.61,13.88 c-2.66,6.59-6.18,10.68-9.47,14.51c-3.03,3.53-5.85,6.81-7.42,11.84c0.89,0.21,1.59,0.94,1.73,1.9c0.17,1.24-0.7,2.39-1.94,2.56 l-0.77,0.11c-0.14,1.09-0.23,2.26-0.27,3.51l0.25-0.04c1.24-0.17,2.39,0.7,2.56,1.94c0.17,1.24-0.7,2.39-1.94,2.56l-0.78,0.11 c0.01,0.15,0.02,0.3,0.03,0.45h0c0.07,0.88,0.08,1.73,0.03,2.54l0.13-0.02c1.25-0.15,2.38,0.74,2.54,1.98 c0.15,1.25-0.74,2.38-1.98,2.54l-1.68,0.21c-1.2,3.11-3.34,5.47-5.87,6.94c-1.74,1.01-3.67,1.59-5.61,1.71 c-1.97,0.12-3.96-0.25-5.78-1.13c-2.08-1.02-3.94-2.71-5.29-5.14c-0.65-0.33-1.13-0.97-1.23-1.75c-0.04-0.31-0.01-0.61,0.07-0.89 c-0.39-1.16-0.69-2.43-0.87-3.83l-0.07,0.01c-1.24,0.17-2.39-0.7-2.56-1.94c-0.17-1.24,0.7-2.39,1.94-2.56l0.54-0.08 C44.19,104.32,44.18,103.16,44.13,102.06L44.13,102.06L44.13,102.06z M66.41,40.34c0.58,0.01,1.17,0.12,1.74,0.31 c1.2,0.41,2.35,1.2,3.24,2.25c0.89,1.06,1.53,2.39,1.69,3.87c0.07,0.65,0.05,1.32-0.08,2.01c0.62,0.57,1.14,1.2,1.53,1.88 c0.64,1.09,0.97,2.3,0.93,3.53c-0.04,1.24-0.44,2.48-1.29,3.62c-0.51,0.69-1.18,1.34-2.02,1.93c0.06,1.84-0.49,3.5-1.38,4.78 c-0.99,1.43-2.41,2.42-3.9,2.73c-0.36,1.29-1.23,2.43-2.33,3.22c-1.44,1.03-3.32,1.51-5.04,1.04c-1.18-0.32-2.26-1.07-3.04-2.35 c-0.94,1.42-2.18,2.18-3.48,2.45c-1.66,0.35-3.38-0.16-4.68-1.17c-1-0.78-1.76-1.87-2.06-3.11c-0.48-0.04-0.97-0.14-1.44-0.3 c-1.17-0.4-2.3-1.16-3.17-2.18c-0.88-1.02-1.53-2.3-1.73-3.73c-0.1-0.71-0.09-1.46,0.06-2.22c-0.54-0.5-1-1.06-1.38-1.67 c-0.67-1.09-1.05-2.32-1.03-3.59c0.02-1.28,0.42-2.57,1.3-3.77c0.49-0.67,1.14-1.31,1.95-1.9c-0.01-0.2-0.01-0.4,0-0.59 c0.07-1.86,0.75-3.49,1.74-4.7c0.03-0.03,0.05-0.06,0.08-0.09c0.99-1.17,2.28-1.95,3.62-2.18c0.05-0.18,0.1-0.35,0.16-0.53 c0.47-1.26,1.42-2.34,2.59-3.02c1.18-0.69,2.6-0.99,3.98-0.7c1.24,0.26,2.43,0.97,3.35,2.27c0.92-1.3,2.11-2.01,3.35-2.27 c1.26-0.26,2.55-0.04,3.66,0.52c1.09,0.55,2.03,1.44,2.6,2.5C66.15,39.56,66.31,39.94,66.41,40.34L66.41,40.34z M66.79,64.35 c0.62-0.26,1.22-0.76,1.68-1.43c0.65-0.95,1.02-2.22,0.84-3.65l-0.01-0.04L69.3,59.2h0c-0.07-0.54,0.18-1.1,0.68-1.4 c0.87-0.51,1.5-1.07,1.94-1.67c0.48-0.66,0.72-1.35,0.74-2.03c0.02-0.69-0.18-1.38-0.56-2.03c-0.35-0.6-0.85-1.15-1.46-1.62 c-0.52-0.34-0.76-1-0.55-1.62c0.21-0.62,0.26-1.21,0.2-1.78c-0.1-0.88-0.49-1.69-1.04-2.35c-0.56-0.66-1.27-1.15-1.99-1.4 c-0.31-0.1-0.62-0.16-0.91-0.16c-0.22,0.66-0.58,1.32-1.12,1.96c-0.5,0.59-1.38,0.67-1.97,0.17c-0.59-0.5-0.67-1.38-0.17-1.97 c0.82-0.97,0.83-1.99,0.4-2.78c-0.3-0.56-0.8-1.03-1.39-1.32c-0.57-0.29-1.21-0.41-1.82-0.28c-0.89,0.18-1.75,0.93-2.31,2.49v23.7 c0.11,0.16,0.18,0.34,0.21,0.55c0.32,1.96,1.15,2.9,2.08,3.16c0.86,0.24,1.86-0.05,2.66-0.62c0.78-0.56,1.34-1.37,1.35-2.22 c0.01-0.97-0.73-2.08-2.7-3.09c-0.69-0.35-0.97-1.2-0.62-1.89c0.35-0.69,1.2-0.97,1.89-0.62C65.07,61.51,66.29,62.92,66.79,64.35 L66.79,64.35z M46.37,43.27c-0.57,0.19-1.13,0.58-1.6,1.12c-0.02,0.03-0.04,0.05-0.06,0.07c-0.64,0.78-1.07,1.82-1.12,3.02 c-0.01,0.32,0,0.66,0.05,1.01l0,0c0.07,0.53-0.17,1.08-0.65,1.39c-0.84,0.52-1.46,1.08-1.89,1.67c-0.52,0.7-0.75,1.44-0.76,2.14 c-0.01,0.72,0.21,1.43,0.61,2.08c0.34,0.55,0.8,1.05,1.37,1.47c0.51,0.35,0.74,1,0.54,1.61c-0.22,0.66-0.27,1.3-0.19,1.9 c0.12,0.86,0.52,1.64,1.07,2.28c0.55,0.64,1.24,1.11,1.95,1.35c0.23,0.08,0.46,0.13,0.68,0.15c0.51-1.49,1.79-2.96,4.12-4.15 c0.69-0.35,1.53-0.08,1.89,0.61c0.35,0.69,0.08,1.53-0.61,1.89c-2.09,1.06-2.87,2.26-2.87,3.3c0,0.79,0.46,1.54,1.13,2.06 c0.68,0.53,1.56,0.8,2.38,0.63c1.03-0.21,2.03-1.19,2.56-3.33c0.03-0.14,0.09-0.27,0.16-0.39V42.64c-0.03-0.05-0.06-0.11-0.09-0.17 l-0.01-0.02l-0.01-0.02l-0.01-0.02l0-0.01l0-0.01l-0.01-0.02l0-0.01l0-0.01L55,42.35l0,0c-0.01-0.04-0.02-0.08-0.03-0.12 c-0.53-2.13-1.53-3.1-2.56-3.31c-0.67-0.14-1.39,0.02-2,0.38c-0.62,0.36-1.12,0.92-1.36,1.56c-0.31,0.84-0.12,1.88,0.95,2.87 c0.57,0.53,0.6,1.41,0.08,1.98c-0.53,0.57-1.41,0.6-1.98,0.08C47.23,44.97,46.67,44.12,46.37,43.27L46.37,43.27z M46.66,47.9 c0.55-0.54,1.44-0.54,1.99,0.02c0.54,0.55,0.54,1.44-0.02,1.99c-0.97,0.95-1.48,2.19-1.53,3.44c-0.05,1.3,0.37,2.64,1.26,3.74 c0.49,0.6,0.39,1.49-0.21,1.97c-0.6,0.49-1.49,0.39-1.97-0.21c-1.33-1.65-1.96-3.65-1.88-5.61C44.37,51.29,45.15,49.38,46.66,47.9 L46.66,47.9z M63.43,49.38c-0.63-0.46-0.77-1.33-0.31-1.96c0.46-0.63,1.33-0.77,1.96-0.31c0.24,0.18,0.47,0.36,0.68,0.55 c1.58,1.43,2.45,3.31,2.61,5.26c0.16,1.93-0.38,3.92-1.6,5.59c-0.02,0.03-0.05,0.07-0.08,0.1c-0.17,0.23-0.34,0.43-0.5,0.62 c-0.52,0.58-1.41,0.62-1.99,0.1c-0.58-0.52-0.62-1.41-0.1-1.99c0.13-0.15,0.24-0.28,0.34-0.41c0.02-0.03,0.03-0.05,0.05-0.08 c0.81-1.12,1.17-2.44,1.07-3.72c-0.1-1.26-0.66-2.47-1.68-3.39C63.74,49.62,63.59,49.5,63.43,49.38L63.43,49.38z M2.18,58.86 C1.01,58.89,0.04,57.98,0,56.81c-0.04-1.17,0.88-2.14,2.05-2.18l8.7-0.3c1.17-0.04,2.14,0.88,2.18,2.05 c0.04,1.17-0.88,2.14-2.05,2.18L2.18,58.86L2.18,58.86z M110.68,50.25c1.16-0.12,2.2,0.73,2.32,1.89c0.12,1.16-0.73,2.2-1.89,2.32 l-8.66,0.91c-1.16,0.12-2.2-0.73-2.32-1.89c-0.12-1.16,0.73-2.2,1.89-2.32L110.68,50.25L110.68,50.25z M94.91,14.78 c0.65-0.97,1.96-1.23,2.93-0.58c0.97,0.65,1.23,1.96,0.58,2.93l-4.84,7.24c-0.65,0.97-1.96,1.23-2.93,0.58 c-0.97-0.65-1.23-1.96-0.58-2.93L94.91,14.78L94.91,14.78z M57.63,2.06c0.03-1.17,1-2.09,2.16-2.06c1.17,0.03,2.09,1,2.06,2.16 l-0.22,8.7c-0.03,1.17-1,2.09-2.16,2.06c-1.17-0.03-2.09-1-2.06-2.16L57.63,2.06L57.63,2.06z M13.88,15.53 c-0.86-0.8-0.9-2.14-0.11-2.99c0.8-0.86,2.14-0.9,2.99-0.11l6.37,5.94c0.86,0.8,0.9,2.14,0.11,2.99c-0.8,0.86-2.14,0.9-2.99,0.11 L13.88,15.53L13.88,15.53z M47.88,96.95l18.49-2.62c1.59-6.7,5.05-10.73,8.8-15.08c3.08-3.58,6.36-7.4,8.76-13.34 c1.76-4.35,2.41-8.43,2.31-12.19c-0.1-3.75-0.96-7.21-2.24-10.34c-2.3-5.63-6.51-10.11-11.64-13.15c-4.11-2.43-8.8-3.94-13.59-4.37 c-4.77-0.44-9.64,0.19-14.13,2.02c-5.26,2.15-9.99,5.97-13.39,11.72c-2.64,5.12-3.86,10.02-3.9,14.73 c-0.04,4.74,1.11,9.33,3.2,13.8c2.13,4.56,4.97,7.8,7.69,10.92C42.47,83.9,46.48,88.49,47.88,96.95L47.88,96.95L47.88,96.95z M65.62,99.02l-17.27,2.45c0.05,1.1,0.07,2.25,0.05,3.47l17.05-2.42C65.47,101.29,65.52,100.12,65.62,99.02L65.62,99.02 L65.62,99.02z M48.49,109.52c0.12,0.92,0.3,1.76,0.53,2.54l16.55-2.04c0.11-0.86,0.13-1.77,0.05-2.74h0l0-0.02l-0.01-0.17 L48.49,109.52L48.49,109.52L48.49,109.52z M51.37,116.36c0.64,0.67,1.35,1.19,2.1,1.55c1.15,0.56,2.42,0.79,3.67,0.72 c1.28-0.08,2.57-0.47,3.74-1.15c1.1-0.64,2.09-1.53,2.88-2.65L51.37,116.36L51.37,116.36L51.37,116.36z"/></g></svg>