<svg xmlns="http://www.w3.org/2000/svg" shape-rendering="geometricPrecision" text-rendering="geometricPrecision" image-rendering="optimizeQuality" fill-rule="evenodd" clip-rule="evenodd" viewBox="0 0 512 231.24"><path d="M290.38 138.83c-.71-5.82 16.55-28.05 19.71-38.69 6.75-10.73 9.15-27.82 1.78-39.16-2.92-4.51-1.67-8.42-1.67-14.64 0-61.77-108.23-61.8-108.23 0 0 7.8 1.79 9.64-2.43 15.81-7.08 10.26-3.45 28.48 2.54 38.01 3.83 11.21 21.94 32.35 20.68 38.7-1.14 31.7 67.82 30.65 67.62-.03zM97.41 201.04h-3.05c-2.75 0-5.01-2.26-5.01-5.01v-8.11c0-2.75 2.26-5.01 5.01-5.01h18.12c2.75 0 5.01 2.26 5.01 5.01v8.11c0 2.75-2.26 5.01-5.01 5.01h-3.1l5.95 30.2H91.7l5.71-30.2zm31.71-44.08c-.56-4.67 13.31-22.54 15.85-31.1 5.43-8.63 7.36-22.35 1.43-31.48-2.35-3.61-1.34-6.76-1.34-11.77 0-49.64-87-49.67-87 0 0 6.28 1.44 7.75-1.95 12.72-5.69 8.25-2.77 22.89 2.04 30.55 3.08 9 17.63 26 16.63 31.1-.92 25.48 54.5 24.64 54.34-.02zm-67.53 14.88c-10.7 6.84-25.86 12.46-37.99 16.51C-.21 196.27-.14 197.37.03 231.24h84.15l-22.59-59.4zm69.48 59.4c2.92-37.9-4.5-36.26 27.22-48.14 15.86-5.93 29.94-13.45 44.47-22.54l27.23 70.68h-98.92zm174.58-73.9c13.3 8.51 26.01 15.5 41.1 20.53 29.62 9.86 29.54 11.23 29.33 53.37h-98.54l28.11-73.9zm108.94 43.7h3.06c2.74 0 5-2.26 5-5.01v-8.11c0-2.75-2.26-5.01-5-5.01h-18.13c-2.75 0-5.01 2.26-5.01 5.01v8.11c0 2.75 2.26 5.01 5.01 5.01h3.11l-5.95 30.2h23.62l-5.71-30.2zm-31.71-44.08c.56-4.67-13.31-22.54-15.84-31.1-5.44-8.63-7.36-22.35-1.44-31.48 2.35-3.61 1.34-6.76 1.34-11.77 0-49.64 87-49.67 87 0 0 6.28-1.44 7.75 1.95 12.72 5.69 8.25 2.77 22.89-2.04 30.55-3.08 9-17.63 26-16.63 31.1.92 25.48-54.5 24.64-54.34-.02zm67.54 14.88c10.69 6.84 25.85 12.46 37.98 16.51 23.81 7.92 23.74 9.02 23.57 42.89h-84.15l22.6-59.4zm-204.3 21.82h-3.81c-3.42 0-6.22-2.81-6.22-6.22v-10.1c0-3.42 2.8-6.23 6.22-6.23h22.55c3.43 0 6.23 2.81 6.23 6.23v10.1c0 3.41-2.8 6.22-6.23 6.22H261l7.4 37.58h-29.39l7.11-37.58z"/></svg>